<svg viewBox="0 0 75 75" xmlns="http://www.w3.org/2000/svg"><path d="m165.5 128a36 36 0 0 1 18.823 5.155 37.813 37.813 0 0 1 13.647 13.989 39.386 39.386 0 0 1 -2.124 41.893 36.8 36.8 0 0 1 -18.481 13.889 2.143 2.143 0 0 1 -1.953-.35 1.982 1.982 0 0 1 -.635-1.5q0-.15.024-3.829t.024-6.732q0-4.855-2.539-7.107a32.7 32.7 0 0 0 5-.9 19.676 19.676 0 0 0 4.59-1.952 13.727 13.727 0 0 0 3.955-3.328 15.636 15.636 0 0 0 2.588-5.255 25.822 25.822 0 0 0 1-7.533 15.038 15.038 0 0 0 -3.857-10.311q1.807-4.555-.391-10.21a6.254 6.254 0 0 0 -3.955.551 26.024 26.024 0 0 0 -4.492 2.2l-1.855 1.2a34.42 34.42 0 0 0 -18.75 0q-.781-.551-2.075-1.351a28.952 28.952 0 0 0 -4.077-1.927q-2.783-1.126-4.15-.676-2.2 5.656-.391 10.21a15.038 15.038 0 0 0 -3.857 10.311 25.567 25.567 0 0 0 1 7.508 16.272 16.272 0 0 0 2.563 5.255 13.237 13.237 0 0 0 3.931 3.353 19.677 19.677 0 0 0 4.59 1.952 32.7 32.7 0 0 0 5 .9 8.537 8.537 0 0 0 -2.393 5.155 9.52 9.52 0 0 1 -2.2.751 13.49 13.49 0 0 1 -2.783.25 5.657 5.657 0 0 1 -3.2-1.076 8.755 8.755 0 0 1 -2.71-3.128 8 8 0 0 0 -2.368-2.6 7.053 7.053 0 0 0 -2.417-1.2l-.977-.15a3.1 3.1 0 0 0 -1.416.225q-.391.225-.244.576a2.766 2.766 0 0 0 .439.7 3.605 3.605 0 0 0 .635.6l.342.25a5.938 5.938 0 0 1 2.124 1.9 12.576 12.576 0 0 1 1.538 2.553l.488 1.151a6.342 6.342 0 0 0 2.148 3.078 7.51 7.51 0 0 0 3.271 1.5 20.36 20.36 0 0 0 3.394.35 14.018 14.018 0 0 0 2.71-.175l1.123-.2q0 1.9.024 4.43t.024 2.728a1.981 1.981 0 0 1 -.635 1.5 2.143 2.143 0 0 1 -1.953.35 36.8 36.8 0 0 1 -18.481-13.889 38.886 38.886 0 0 1 11.523-55.882 36 36 0 0 1 18.841-5.152zm-23.291 55.206q.147-.35-.342-.6-.488-.15-.635.1-.146.35.342.6.44.301.635-.1zm1.514 1.7q.342-.25-.1-.8-.488-.45-.781-.15-.342.25.1.8.488.502.781.152zm1.465 2.252q.439-.35 0-.951-.391-.651-.83-.3-.439.25 0 .9t.83.353zm2.051 2.1q.391-.4-.2-.951-.586-.6-.977-.15-.439.4.2.951.586.605.976.154zm2.783 1.251q.146-.551-.635-.8-.732-.2-.928.35t.635.751q.732.304.927-.296zm3.076.25q0-.651-.83-.551-.781 0-.781.551 0 .651.83.551.783.005.783-.546zm2.832-.5q-.1-.551-.879-.45-.781.15-.684.751t.879.4q.781-.196.684-.697z" fill="#fff" transform="translate(-128 -128)"/></svg>