<svg xmlns="http://www.w3.org/2000/svg" viewBox="0 0 75.769 76.248">
	<path d="M70.169,76.248H5.6A5.539,5.539,0,0,1,0,70.786V5.462A5.539,5.539,0,0,1,5.6,0H70.169a5.539,5.539,0,0,1,5.6,5.462V70.786A5.539,5.539,0,0,1,70.169,76.248ZM46.993,37.623a5.043,5.043,0,0,1,4.452,2.157,9.992,9.992,0,0,1,1.346,5.629V63.828H64.233V44.086a21.913,21.913,0,0,0-1-6.883,13.171,13.171,0,0,0-2.764-4.831,12.386,12.386,0,0,0-9.411-3.782A11.815,11.815,0,0,0,44.2,30.551a12.839,12.839,0,0,0-3.45,3.721V29.4H29.3c.148,3.188,0,34.118,0,34.43H40.744V44.6a7.59,7.59,0,0,1,.377-2.793,7.138,7.138,0,0,1,2.06-2.863A5.879,5.879,0,0,1,46.993,37.623ZM11.524,29.4v34.43H22.968V29.4Zm5.8-16.6a6.694,6.694,0,0,0-4.7,1.708,5.749,5.749,0,0,0-1.769,4.241,5.816,5.816,0,0,0,1.722,4.213,6.423,6.423,0,0,0,4.6,1.735h.075a6.67,6.67,0,0,0,4.734-1.735,5.762,5.762,0,0,0,1.741-4.213,6.013,6.013,0,0,0-1.759-4.241A6.5,6.5,0,0,0,17.321,12.8Z" fill="#fff" />
</svg>
