<svg xmlns="http://www.w3.org/2000/svg" width="109.829" height="93.92" viewBox="0 0 109.829 93.92">
  <path id="Tracé_1" data-name="Tracé 1" d="M36.687-63.861q-11.625,0-17.744-8.872T12.824-97.819q0-40.077,37.935-59.962l8.566,15.6Q46.476-134.836,40.2-125.964t-6.272,22.333a9.281,9.281,0,0,1,2.753-.306A21.308,21.308,0,0,1,50.912-98.89q5.966,5.048,5.966,13.92,0,9.79-5.66,15.449T36.687-63.861Zm63.327,0q-11.625,0-17.744-8.872T76.151-97.819q0-40.077,37.935-59.962l8.566,15.6q-12.849,7.342-19.121,16.214t-6.272,22.333a9.281,9.281,0,0,1,2.753-.306A21.308,21.308,0,0,1,114.24-98.89q5.966,5.048,5.966,13.92,0,9.79-5.66,15.449T100.014-63.861Z" transform="translate(-12.824 157.781)" fill="#fff"/>
</svg>
